<?xml version="1.0" encoding="UTF-8"?>
<svg width="24px" height="24px" viewBox="0 0 24 24" version="1.1" xmlns="http://www.w3.org/2000/svg" xmlns:xlink="http://www.w3.org/1999/xlink">
    <!-- Generator: Sketch 48.1 (47250) - http://www.bohemiancoding.com/sketch -->
    <title>Elements / SNS / ico_twitter_w</title>
    <desc>Created with Sketch.</desc>
    <defs></defs>
    <g id="Symbols" stroke="none" stroke-width="1" fill="none" fill-rule="evenodd">
        <g id="Elements-/-SNS-/-ico_twitter_w" fill="#FFFFFF">
            <path d="M22.008,5.895 C21.235,6.217 20.404,6.432 19.533,6.53 C20.423,6.03 21.106,5.238 21.428,4.296 C20.594,4.758 19.672,5.094 18.69,5.276 C17.905,4.49 16.784,4 15.545,4 C13.165,4 11.234,5.809 11.234,8.039 C11.234,8.356 11.272,8.665 11.346,8.96 C7.764,8.791 4.588,7.183 2.462,4.74 C2.091,5.337 1.879,6.03 1.879,6.771 C1.879,8.171 2.64,9.409 3.796,10.133 C3.09,10.111 2.426,9.93 1.844,9.627 L1.844,9.679 C1.844,11.636 3.329,13.268 5.301,13.639 C4.94,13.731 4.558,13.779 4.166,13.779 C3.888,13.779 3.618,13.755 3.355,13.709 C3.903,15.312 5.495,16.481 7.381,16.514 C5.906,17.597 4.048,18.242 2.028,18.242 C1.68,18.242 1.337,18.223 1,18.186 C2.907,19.331 5.173,20.001 7.607,20.001 C15.535,20.001 19.87,13.845 19.87,8.508 C19.87,8.332 19.865,8.159 19.857,7.985 C20.699,7.415 21.43,6.704 22.008,5.895 L22.008,5.895 Z" id="ico_twitter"></path>
        </g>
    </g>
</svg>