<?xml version="1.0" encoding="UTF-8"?>
<svg width="24px" height="24px" viewBox="0 0 24 24" version="1.1" xmlns="http://www.w3.org/2000/svg" xmlns:xlink="http://www.w3.org/1999/xlink">
    <!-- Generator: Sketch 48.2 (47327) - http://www.bohemiancoding.com/sketch -->
    <title>Elements / SNS / ico_language</title>
    <desc>Created with Sketch.</desc>
    <defs></defs>
    <g id="Symbols" stroke="none" stroke-width="1" fill="none" fill-rule="evenodd">
        <g id="Elements-/-SNS-/-ico_language" fill="#000000" fill-rule="nonzero">
            <path d="M11.25,20.9736598 L11.25,14.740057 C9.70447771,14.6987579 8.24045603,14.5304111 6.9363682,14.2554035 C7.4771386,17.4693204 9.14293545,20.039623 11.25,20.9736598 Z M12.75,20.9736598 C14.8559696,20.0401084 16.5211299,17.4719914 17.0627878,14.2604135 C15.757766,14.5326265 14.293163,14.6992091 12.75,14.7401304 L12.75,20.9736598 Z M11.25,3.02634024 C8.6689339,4.17049626 6.75,7.76990634 6.75,12 C6.75,12.2273786 6.75554446,12.4529349 6.76643818,12.6763856 C8.06389975,12.9844729 9.60145964,13.1904587 11.25,13.239007 L11.25,3.02634024 Z M12.75,3.04606548 L12.75,13.2390064 C14.3952084,13.1905926 15.9346172,12.9857283 17.2333147,12.6814356 C17.2443717,12.4563335 17.25,12.2290916 17.25,12 C17.25,7.79527465 15.3486771,4.24119819 12.75,3.04606548 Z M21.1392393,10.5642297 C20.657221,7.47112328 18.6425767,4.88544897 15.8962963,3.60819658 C17.6584838,5.61735406 18.75,8.65128214 18.75,12 C18.75,12.0815356 18.749355,12.1628941 18.7480712,12.2440648 C19.9884923,11.8051967 20.8282122,11.2652255 21.0569129,10.7130445 C21.0791494,10.6593563 21.106901,10.6096231 21.1392393,10.5642297 Z M21.2264632,12.6649988 C20.5605797,13.131375 19.6776063,13.5335138 18.6369024,13.8567395 C18.3188919,16.4410188 17.347715,18.7408673 15.9459141,20.3685471 C18.891316,18.9773017 20.9840919,16.0768594 21.2264632,12.6649988 Z M2.77207868,12.6441426 C3.00738566,16.0650368 5.10268422,18.9744677 8.05408593,20.3685471 C6.65055118,18.7388542 5.67870645,16.4353288 5.36192068,13.8471494 C4.32248971,13.5207288 3.44007829,13.114754 2.77207868,12.6441426 Z M2.86075157,10.5642882 C2.88763268,10.6020449 2.91138326,10.6428463 2.93147043,10.6864954 C3.19049902,11.2493603 4.02827209,11.792218 5.25174774,12.2323368 C5.25058435,12.1550579 5.25,12.0776092 5.25,12 C5.25,8.67261422 6.32412129,5.64017492 8.05408593,3.6314529 C5.33315656,4.91666985 3.33984611,7.48981395 2.86075157,10.5642882 Z M11.9829944,1.25001316 C11.9837667,1.24999622 11.9845392,1.24998047 11.9853119,1.24996592 C11.995683,1.24979499 12.0060243,1.24979692 12.0163311,1.25001214 C17.9458845,1.25882846 22.75,6.06838359 22.75,12 C22.75,17.9316164 17.9458845,22.7411715 12.0163311,22.7499879 C12.0060243,22.7502031 11.995683,22.750205 11.9853127,22.7499902 C6.05500336,22.7420604 1.25,17.9321645 1.25,12 C1.25,6.06860848 6.05375118,1.25919317 11.9829944,1.25001316 Z" id="Combined-Shape"></path>
        </g>
    </g>
</svg>