<?xml version="1.0" encoding="UTF-8"?>
<svg width="24px" height="24px" viewBox="0 0 24 24" version="1.1" xmlns="http://www.w3.org/2000/svg" xmlns:xlink="http://www.w3.org/1999/xlink">
    <!-- Generator: Sketch 48.1 (47250) - http://www.bohemiancoding.com/sketch -->
    <title>Elements / SNS / ico_instagram_w</title>
    <desc>Created with Sketch.</desc>
    <defs></defs>
    <g id="Symbols" stroke="none" stroke-width="1" fill="none" fill-rule="evenodd">
        <g id="Elements-/-SNS-/-ico_instagram_w" fill="#FFFFFF" fill-rule="nonzero">
            <path d="M20.94586,8.28931 C20.9309065,7.54268882 20.7894582,6.80400855 20.52753,6.10468 C20.3015394,5.50414041 19.9472753,4.96012249 19.48944,4.51056 C19.0398775,4.05272475 18.4958596,3.6984606 17.89532,3.47247 C17.1959915,3.21054181 16.4573112,3.06909355 15.71069,3.05414 C14.75073,3.01038 14.44427,3 12,3 C9.55573,3 9.24927,3.01038 8.28931,3.05414 C7.54268882,3.06909355 6.80400855,3.21054181 6.10468,3.47247 C5.50414041,3.6984606 4.96012249,4.05272475 4.51056,4.51056 C4.05272475,4.96012249 3.6984606,5.50414041 3.47247,6.10468 C3.21054181,6.80400855 3.06909355,7.54268882 3.05414,8.28931 C3.01038,9.24927 3,9.55573 3,12 C3,14.44427 3.01038,14.75073 3.05414,15.71069 C3.06909355,16.4573112 3.21054181,17.1959915 3.47247,17.89532 C3.6984606,18.4958596 4.05272475,19.0398775 4.51056,19.48944 C4.96010612,19.9472953 5.50412874,20.3015625 6.10468,20.52753 C6.80400855,20.7894582 7.54268882,20.9309065 8.28931,20.94586 C9.24927,20.98969 9.55573,21 12,21 C14.44427,21 14.75073,20.98969 15.71069,20.94586 C16.4573112,20.9309065 17.1959915,20.7894582 17.89532,20.52753 C19.1042544,20.0599688 20.0599588,19.1042644 20.52752,17.89533 C20.7894482,17.1960015 20.9308965,16.4573212 20.94585,15.7107 C20.98962,14.75073 21,14.44427 21,12 C21,9.55573 20.98962,9.24927 20.94586,8.28931 Z M19.32593,15.63678 C19.3191752,16.2074749 19.2143342,16.7727584 19.01599,17.30792 C18.7132468,18.0928479 18.0928462,18.7132522 17.30792,19.016 C16.7727565,19.2143373 16.2074742,19.319178 15.63678,19.32594 C14.68787,19.3692 14.40326,19.37836 12,19.37836 C9.59674,19.37836 9.31213,19.3692 8.36322,19.32593 C7.79252636,19.3191712 7.22724407,19.2143339 6.69208,19.016 C6.30115027,18.8717562 5.94752965,18.6417088 5.65723,18.34278 C5.3582963,18.0524785 5.12824542,17.6988542 4.984,17.30792 C4.78565581,16.7727584 4.68081482,16.2074749 4.67406,15.63678 C4.6308,14.68774 4.62164,14.40314 4.62164,12 C4.62164,9.59686 4.6308,9.31226 4.67407,8.36322 C4.68082875,7.79252636 4.78566614,7.22724407 4.984,6.69208 C5.12824383,6.30115027 5.35829116,5.94752965 5.65722,5.65723 C5.94752151,5.3582963 6.30114575,5.12824542 6.69208,4.984 C7.22724347,4.78566272 7.79252578,4.68082196 8.36322,4.67406 C9.31226,4.6308 9.59686,4.62164 12,4.62164 C14.40314,4.62164 14.68774,4.6308 15.63678,4.67407 C16.2074742,4.68083196 16.7727565,4.78567272 17.30792,4.98401 C17.6988497,5.12825383 18.0524704,5.35830116 18.34277,5.65723 C18.6417025,5.94752863 18.8717533,6.30114933 19.016,6.69208 C19.2143373,7.22724347 19.319178,7.79252578 19.32594,8.36322 C19.36921,9.31222 19.37837,9.59692 19.37837,12 C19.37837,14.40308 19.3692,14.68774 19.32593,15.63678 Z M12,7.37836 C9.44753871,7.37836 7.37836,9.44753871 7.37836,12 C7.37836,14.5524613 9.44753871,16.62164 12,16.62164 C14.5524613,16.62164 16.62164,14.5524613 16.62164,12 C16.6216124,9.44755015 14.5524499,7.37838761 12,7.37836 Z M12,15 C10.3431458,15 9,13.6568542 9,12 C9,10.3431458 10.3431458,9 12,9 C13.6568542,9 15,10.3431458 15,12 C15,12.7956495 14.6839295,13.5587112 14.1213203,14.1213203 C13.5587112,14.6839295 12.7956495,15 12,15 Z M17.88422,7.1958 C17.88422,7.79226753 17.4006875,8.2758 16.80422,8.2758 C16.2077525,8.2758 15.72422,7.79226753 15.72422,7.1958 C15.72422,6.59933247 16.2077525,6.1158 16.80422,6.1158 C17.4006875,6.1158 17.88422,6.59933247 17.88422,7.1958 Z" id="ico_instagram"></path>
        </g>
    </g>
</svg>