<?xml version="1.0" encoding="utf-8"?>
<!-- Generator: Adobe Illustrator 22.0.1, SVG Export Plug-In . SVG Version: 6.00 Build 0)  -->
<svg version="1.1" id="Layer_1" xmlns="http://www.w3.org/2000/svg" xmlns:xlink="http://www.w3.org/1999/xlink" x="0px" y="0px"
	 viewBox="0 0 80 65" style="enable-background:new 0 0 80 65;" xml:space="preserve">
<style type="text/css">
	.st0{fill:#FFFFFF;}
	.st1{opacity:0.2;fill:#6184F3;enable-background:new    ;}
</style>
<title>Logo/ logo_symbol_w</title>
<desc>Created with Sketch.</desc>
<g id="Logo_x2F_-logo_x5F_symbol_x5F_w">
	<g id="Group-2" transform="translate(10.000000, 18.000000)">
		<path id="Fill-1" class="st0" d="M47.3-16.2c-0.3-0.7-0.9-1.3-1.7-1.3h-5.5L28.2,19.2l9.4,26.7c0.1,0.4,0.5,0.6,0.8,0.6h29.9
			c0.6,0,1.1-0.7,0.8-1.4C65.9,36,47.4-15.9,47.3-16.2"/>
		<path id="Fill-3" class="st1" d="M47.3-16.2c-0.3-0.7-0.9-1.3-1.7-1.3h-5.5L28.2,19.2l9.4,26.7c0.1,0.4,0.5,0.6,0.8,0.6h29.9
			c0.6,0,1.1-0.7,0.8-1.4C65.9,36,47.4-15.9,47.3-16.2"/>
		<path id="Fill-17" class="st0" d="M45.7-17.5h-31c-1.3,0-2.5,1-3.1,2.6l-21.6,60c-0.2,0.7,0.2,1.4,0.8,1.4h29.9
			c0.4,0,0.7-0.2,0.8-0.6L44-16.2C44.2-17,44.9-17.5,45.7-17.5"/>
	</g>
</g>
</svg>
