<?xml version="1.0" encoding="UTF-8"?>
<svg width="105px" height="20px" viewBox="0 0 105 20" version="1.1" xmlns="http://www.w3.org/2000/svg" xmlns:xlink="http://www.w3.org/1999/xlink">
    <!-- Generator: Sketch 53.2 (72643) - https://sketchapp.com -->
    <title>Logo / logo_logotype</title>
    <desc>Created with Sketch.</desc>
    <g id="Logo-/-logo_logotype" stroke="none" stroke-width="1" fill="none" fill-rule="evenodd">
        <path d="M11.63,7.19 C11.63,5.22125 10.428125,4.165625 8.35875,4.165625 L5.11625,4.165625 L5.11625,10.3 L8.35875,10.3 C10.428125,10.3 11.63,9.21625 11.63,7.19 M16.494375,7.019375 C16.494375,11.72625 13.615,14.465625 8.610625,14.465625 L5.11625,14.465625 L5.11625,20 L-1.90070182e-13,20 L-1.90070182e-13,0 L8.610625,0 C13.615,0 16.494375,2.568125 16.494375,7.019375" id="Fill-5" fill="#000000"></path>
        <polygon id="Fill-7" fill="#000000" points="23.86625 0 23.86625 15.549375 32.169375 15.549375 32.169375 20 18.75 20 18.75 0"></polygon>
        <path d="M47.336875,12.4675 L44.653125,5.335 L41.913125,12.4675 L47.336875,12.4675 Z M48.84625,16.461875 L40.375625,16.461875 L39.005625,20 L33.75,20 L42.165,0 L47.420625,0 L55.64,20 L50.188125,20 L48.84625,16.461875 Z" id="Fill-9" fill="#000000"></path>
        <polygon id="Fill-12" fill="#000000" points="61.375625 0 70.26625 12.04 70.26625 0 75.01875 0 75.01875 20 70.545 20 61.655625 8.0175 61.655625 20 56.875 20 56.875 0"></polygon>
        <path d="M95.086875,12.4675 L92.403125,5.335 L89.6625,12.4675 L95.086875,12.4675 Z M96.59625,16.461875 L88.125625,16.461875 L86.755,20 L81.5,20 L89.915,0 L95.17125,0 L103.39,20 L97.938125,20 L96.59625,16.461875 Z" id="Fill-14" fill="#000000"></path>
    </g>
</svg>